<svg id="vuesax_bold_clipboard-tick" data-name="vuesax/bold/clipboard-tick" xmlns="http://www.w3.org/2000/svg" width="30" height="30" viewBox="0 0 30 30">
  <g id="clipboard-tick">
    <path id="Vector" d="M8.238,0H2.362A2.358,2.358,0,0,0,0,2.35V3.525a2.347,2.347,0,0,0,2.35,2.35H8.238a2.347,2.347,0,0,0,2.35-2.35V2.35A2.339,2.339,0,0,0,8.238,0Z" transform="translate(9.7 2.5)" fill="#5fad51"/>
    <path id="Vector-2" data-name="Vector" d="M17.438.922a3.622,3.622,0,0,1-3.612,3.612H7.95A3.622,3.622,0,0,1,4.338.922.933.933,0,0,0,2.962.109,5.59,5.59,0,0,0,0,5.047V16.809A5.6,5.6,0,0,0,5.588,22.4h10.6a5.6,5.6,0,0,0,5.587-5.587V5.047A5.59,5.59,0,0,0,18.813.109.933.933,0,0,0,17.438.922Zm-2.375,9.887-5,5a.936.936,0,0,1-1.325,0L6.862,13.934a.937.937,0,0,1,1.325-1.325L9.4,13.822l4.337-4.338a.937.937,0,0,1,1.325,1.325Z" transform="translate(4.113 5.103)" fill="#094e81"/>
    <path id="Vector-3" data-name="Vector" d="M0,0H30V30H0Z" transform="translate(30 30) rotate(180)" fill="none" opacity="0"/>
  </g>
</svg>
