<svg id="vuesax_bold_lamp-on" data-name="vuesax/bold/lamp-on" xmlns="http://www.w3.org/2000/svg" width="30" height="30" viewBox="0 0 30 30">
  <g id="lamp-on">
    <path id="Vector" d="M19.05,5.447a9.894,9.894,0,0,0-6.725-5.2A10.1,10.1,0,0,0,3.763,2.222,9.966,9.966,0,0,0,0,10.059a10.819,10.819,0,0,0,4.863,8.587v1.038a1.677,1.677,0,0,0,.4,1.325,2.156,2.156,0,0,0,1.6.5h6.412a2.088,2.088,0,0,0,1.537-.537,1.87,1.87,0,0,0,.45-1.45v-.875C19.137,16.034,21.575,10.522,19.05,5.447Z" transform="translate(4.963 2.503)" fill="#094e81"/>
    <path id="Vector-2" data-name="Vector" d="M9.01,2.313a.785.785,0,0,1-.238-.038,14,14,0,0,0-7.663,0,.873.873,0,0,1-1.075-.6A.863.863,0,0,1,.635.6,15.8,15.8,0,0,1,9.26.6a.868.868,0,0,1,.6,1.075A.9.9,0,0,1,9.01,2.313Z" transform="translate(10.065 25.188)" fill="#5fad51"/>
    <path id="Vector-3" data-name="Vector" d="M0,0H30V30H0Z" transform="translate(30 30) rotate(180)" fill="none" opacity="0"/>
  </g>
</svg>
