<svg id="vuesax_bulk_profile-2user" data-name="vuesax/bulk/profile-2user" xmlns="http://www.w3.org/2000/svg" width="44" height="44" viewBox="0 0 44 44">
  <g id="profile-2user">
    <path id="Vector" d="M8.708,0a8.7,8.7,0,0,0-.22,17.4,1.479,1.479,0,0,1,.4,0H9.02A8.7,8.7,0,0,0,8.708,0Z" transform="translate(7.792 3.667)" fill="#094e81" opacity="0.4"/>
    <path id="Vector-2" data-name="Vector" d="M22.22,2.557C17.1-.853,8.763-.853,3.612,2.557A7.237,7.237,0,0,0,0,8.479a7.176,7.176,0,0,0,3.593,5.885,16.939,16.939,0,0,0,9.313,2.585,16.939,16.939,0,0,0,9.313-2.585,7.233,7.233,0,0,0,3.593-5.922A7.219,7.219,0,0,0,22.22,2.557Z" transform="translate(3.593 23.384)" fill="#094e81"/>
    <path id="Vector-3" data-name="Vector" d="M10.78,6.02a6.562,6.562,0,0,1-5.738,7.095H4.95a.858.858,0,0,0-.312.037A6.578,6.578,0,0,1,0,11.63,8.39,8.39,0,0,0,2.75,4.663a8.508,8.508,0,0,0-1.412-4A6.583,6.583,0,0,1,10.78,6.02Z" transform="translate(25.868 7.437)" fill="#094e81" opacity="0.4"/>
    <path id="Vector-4" data-name="Vector" d="M14.667,7.5a5.584,5.584,0,0,1-3.19,4.363,12.94,12.94,0,0,1-6.435,1.43A6.544,6.544,0,0,0,7.278,9.039a7.223,7.223,0,0,0-3.062-6.2A15.134,15.134,0,0,0,0,.532C4.052-.641,9.148.147,12.283,2.677A5.57,5.57,0,0,1,14.667,7.5Z" transform="translate(25.648 22.916)" fill="#094e81"/>
    <path id="Vector-5" data-name="Vector" d="M0,0H44V44H0Z" fill="none" opacity="0"/>
  </g>
</svg>
