<svg id="vuesax_bulk_setting-2" data-name="vuesax/bulk/setting-2" xmlns="http://www.w3.org/2000/svg" width="44" height="44" viewBox="0 0 44 44">
  <g id="setting-2">
    <path id="Vector" d="M0,18.918V15.691a3.494,3.494,0,0,1,3.483-3.483c3.318,0,4.675-2.347,3.007-5.225A3.482,3.482,0,0,1,7.773,2.235L10.945.42a3.06,3.06,0,0,1,4.18,1.1l.2.348c1.65,2.878,4.363,2.878,6.032,0l.2-.348A3.06,3.06,0,0,1,25.74.42l3.172,1.815A3.482,3.482,0,0,1,30.2,6.983c-1.668,2.878-.312,5.225,3.007,5.225a3.494,3.494,0,0,1,3.483,3.483v3.227A3.494,3.494,0,0,1,33.2,22.4c-3.318,0-4.675,2.347-3.007,5.225a3.477,3.477,0,0,1-1.283,4.748L25.74,34.19a3.06,3.06,0,0,1-4.18-1.1l-.2-.348c-1.65-2.878-4.363-2.878-6.032,0l-.2.348a3.06,3.06,0,0,1-4.18,1.1L7.773,32.375A3.482,3.482,0,0,1,6.49,27.626C8.158,24.748,6.8,22.4,3.483,22.4A3.494,3.494,0,0,1,0,18.918Z" transform="translate(3.667 4.695)" fill="#094e81" opacity="0.4"/>
    <path id="Vector-2" data-name="Vector" d="M11.917,5.958A5.958,5.958,0,1,1,5.958,0,5.958,5.958,0,0,1,11.917,5.958Z" transform="translate(16.042 16.042)" fill="#094e81"/>
    <path id="Vector-3" data-name="Vector" d="M0,0H44V44H0Z" fill="none" opacity="0"/>
  </g>
</svg>
