<svg id="vuesax_bulk_verify" data-name="vuesax/bulk/verify" xmlns="http://www.w3.org/2000/svg" width="44" height="44" viewBox="0 0 44 44">
  <g id="verify">
    <path id="Vector" d="M16.032.811a3.694,3.694,0,0,1,4.62,0l2.9,2.493a4.063,4.063,0,0,0,2.31.862h3.117A3.552,3.552,0,0,1,32.514,7.7v3.117a4.113,4.113,0,0,0,.862,2.31l2.493,2.9a3.694,3.694,0,0,1,0,4.62l-2.493,2.9a4.063,4.063,0,0,0-.862,2.31v3.117a3.552,3.552,0,0,1-3.538,3.538H25.859a4.113,4.113,0,0,0-2.31.862l-2.9,2.493a3.694,3.694,0,0,1-4.62,0l-2.9-2.493a4.063,4.063,0,0,0-2.31-.862H7.654a3.552,3.552,0,0,1-3.538-3.538V25.836a4.172,4.172,0,0,0-.843-2.292L.8,20.63a3.691,3.691,0,0,1,0-4.583l2.475-2.915a4.172,4.172,0,0,0,.843-2.292V7.686A3.552,3.552,0,0,1,7.654,4.148h3.172a4.113,4.113,0,0,0,2.31-.862Z" transform="translate(3.676 3.68)" fill="#094e81" opacity="0.4"/>
    <path id="Vector-2" data-name="Vector" d="M5.807,11.6a1.374,1.374,0,0,1-.972-.4L.4,6.76A1.374,1.374,0,0,1,2.342,4.817L5.807,8.282,13.69.4a1.374,1.374,0,0,1,1.943,1.943L6.779,11.2A1.374,1.374,0,0,1,5.807,11.6Z" transform="translate(13.975 16.211)" fill="#094e81"/>
    <path id="Vector-3" data-name="Vector" d="M0,0H44V44H0Z" fill="none" opacity="0"/>
  </g>
</svg>
